<svg width="36" height="12" viewBox="0 0 36 12" fill="none" xmlns="http://www.w3.org/2000/svg">
<path d="M4.75098 7.14453H1.77246L1.10352 9H0.136719L2.85156 1.89062H3.67188L6.3916 9H5.42969L4.75098 7.14453ZM2.05566 6.37305H4.47266L3.26172 3.04785L2.05566 6.37305ZM9.95605 6.12402H8.28613V9H7.34375V1.89062H9.69727C10.498 1.89062 11.1133 2.07292 11.543 2.4375C11.9759 2.80208 12.1924 3.33268 12.1924 4.0293C12.1924 4.47201 12.0719 4.85775 11.8311 5.18652C11.5934 5.5153 11.2614 5.76107 10.835 5.92383L12.5049 8.94141V9H11.499L9.95605 6.12402ZM8.28613 5.35742H9.72656C10.1921 5.35742 10.5615 5.23698 10.835 4.99609C11.1117 4.75521 11.25 4.43294 11.25 4.0293C11.25 3.58984 11.1182 3.25293 10.8545 3.01855C10.5941 2.78418 10.2165 2.66536 9.72168 2.66211H8.28613V5.35742ZM18.7598 8.06738C18.5189 8.41243 18.182 8.67122 17.749 8.84375C17.3193 9.01302 16.818 9.09766 16.2451 9.09766C15.6657 9.09766 15.1514 8.96257 14.7021 8.69238C14.2529 8.41895 13.9046 8.03158 13.6572 7.53027C13.4131 7.02897 13.2878 6.44792 13.2812 5.78711V5.16699C13.2812 4.09603 13.5303 3.26595 14.0283 2.67676C14.5296 2.08757 15.2327 1.79297 16.1377 1.79297C16.8799 1.79297 17.4772 1.9834 17.9297 2.36426C18.3822 2.74186 18.6589 3.27897 18.7598 3.97559H17.8223C17.6465 3.03483 17.0866 2.56445 16.1426 2.56445C15.5143 2.56445 15.0374 2.78581 14.7119 3.22852C14.3896 3.66797 14.2269 4.30599 14.2236 5.14258V5.72363C14.2236 6.52116 14.4059 7.15592 14.7705 7.62793C15.1351 8.09668 15.6283 8.33105 16.25 8.33105C16.6016 8.33105 16.9092 8.29199 17.1729 8.21387C17.4365 8.13574 17.6546 8.00391 17.8271 7.81836V6.22168H16.1816V5.45996H18.7598V8.06738ZM23.6816 7.16895C23.6816 6.86947 23.5758 6.61719 23.3643 6.41211C23.1559 6.20703 22.8027 6.02148 22.3047 5.85547C21.6113 5.64388 21.1051 5.36882 20.7861 5.03027C20.4704 4.68848 20.3125 4.25553 20.3125 3.73145C20.3125 3.19759 20.4671 2.75977 20.7764 2.41797C21.0889 2.07617 21.5169 1.87272 22.0605 1.80762V0.738281H22.7881V1.8125C23.335 1.88737 23.7598 2.11686 24.0625 2.50098C24.3685 2.88509 24.5215 3.41081 24.5215 4.07812H23.623C23.623 3.61914 23.514 3.25456 23.2959 2.98438C23.0778 2.71419 22.7832 2.5791 22.4121 2.5791C22.0247 2.5791 21.7285 2.68001 21.5234 2.88184C21.3184 3.0804 21.2158 3.35872 21.2158 3.7168C21.2158 4.04883 21.3232 4.31413 21.5381 4.5127C21.7562 4.70801 22.1126 4.88704 22.6074 5.0498C23.1055 5.20931 23.4928 5.38672 23.7695 5.58203C24.0495 5.77409 24.2546 5.9987 24.3848 6.25586C24.5182 6.51302 24.585 6.81413 24.585 7.15918C24.585 7.70931 24.4189 8.15202 24.0869 8.4873C23.7581 8.82259 23.2959 9.02116 22.7002 9.08301V10.0156H21.9775V9.08301C21.3721 9.02767 20.8968 8.81283 20.5518 8.43848C20.21 8.06087 20.0391 7.5498 20.0391 6.90527H20.9424C20.9424 7.35775 21.0612 7.70605 21.2988 7.9502C21.5365 8.19434 21.8734 8.31641 22.3096 8.31641C22.736 8.31641 23.0713 8.21387 23.3154 8.00879C23.5596 7.80371 23.6816 7.52376 23.6816 7.16895Z" fill="#F3F3F3"/>
<path d="M28.5 5L31.25 7.75L34 5" stroke="#F3F3F3"/>
</svg>
