<svg width="46" height="12" viewBox="0 0 46 12" fill="none" xmlns="http://www.w3.org/2000/svg">
<path d="M4.84375 5.71387H1.7627V8.2334H5.3418V9H0.825195V1.89062H5.29297V2.66211H1.7627V4.94727H4.84375V5.71387ZM9.44336 7.59863C9.44336 7.35449 9.35059 7.16569 9.16504 7.03223C8.98275 6.89551 8.66211 6.77832 8.20312 6.68066C7.7474 6.58301 7.38444 6.46582 7.11426 6.3291C6.84733 6.19238 6.64876 6.02962 6.51855 5.84082C6.3916 5.65202 6.32812 5.42741 6.32812 5.16699C6.32812 4.73405 6.51042 4.36784 6.875 4.06836C7.24284 3.76888 7.71159 3.61914 8.28125 3.61914C8.88021 3.61914 9.36523 3.77376 9.73633 4.08301C10.1107 4.39225 10.2979 4.78776 10.2979 5.26953H9.38965C9.38965 5.02214 9.28385 4.80892 9.07227 4.62988C8.86393 4.45085 8.60026 4.36133 8.28125 4.36133C7.95247 4.36133 7.69531 4.43294 7.50977 4.57617C7.32422 4.7194 7.23145 4.90658 7.23145 5.1377C7.23145 5.35579 7.31771 5.52018 7.49023 5.63086C7.66276 5.74154 7.97363 5.84733 8.42285 5.94824C8.87533 6.04915 9.24154 6.1696 9.52148 6.30957C9.80143 6.44954 10.0081 6.61882 10.1416 6.81738C10.2783 7.0127 10.3467 7.25195 10.3467 7.53516C10.3467 8.00716 10.1579 8.38639 9.78027 8.67285C9.40267 8.95605 8.91276 9.09766 8.31055 9.09766C7.88737 9.09766 7.51302 9.02279 7.1875 8.87305C6.86198 8.72331 6.60645 8.51497 6.4209 8.24805C6.23861 7.97786 6.14746 7.68652 6.14746 7.37402H7.05078C7.06706 7.67676 7.1875 7.91764 7.41211 8.09668C7.63997 8.27246 7.93945 8.36035 8.31055 8.36035C8.65234 8.36035 8.92578 8.29199 9.13086 8.15527C9.33919 8.0153 9.44336 7.82975 9.44336 7.59863ZM15.9863 6.41699C15.9863 7.22103 15.8024 7.86882 15.4346 8.36035C15.0667 8.85189 14.5687 9.09766 13.9404 9.09766C13.2992 9.09766 12.7946 8.89421 12.4268 8.4873V11.0312H11.5234V3.7168H12.3486L12.3926 4.30273C12.7604 3.84701 13.2715 3.61914 13.9258 3.61914C14.5605 3.61914 15.0618 3.8584 15.4297 4.33691C15.8008 4.81543 15.9863 5.48112 15.9863 6.33398V6.41699ZM15.083 6.31445C15.083 5.71875 14.9561 5.24837 14.7021 4.90332C14.4482 4.55827 14.0999 4.38574 13.6572 4.38574C13.1104 4.38574 12.7002 4.62826 12.4268 5.11328V7.6377C12.6969 8.11947 13.1104 8.36035 13.667 8.36035C14.0999 8.36035 14.4434 8.18945 14.6973 7.84766C14.9544 7.5026 15.083 6.99154 15.083 6.31445ZM20.4004 9C20.3483 8.89583 20.306 8.71029 20.2734 8.44336C19.8535 8.87956 19.3522 9.09766 18.7695 9.09766C18.2487 9.09766 17.8206 8.95117 17.4854 8.6582C17.1533 8.36198 16.9873 7.98763 16.9873 7.53516C16.9873 6.98503 17.1956 6.55859 17.6123 6.25586C18.0322 5.94987 18.6214 5.79688 19.3799 5.79688H20.2588V5.38184C20.2588 5.06608 20.1644 4.81543 19.9756 4.62988C19.7868 4.44108 19.5085 4.34668 19.1406 4.34668C18.8184 4.34668 18.5482 4.42806 18.3301 4.59082C18.112 4.75358 18.0029 4.95052 18.0029 5.18164H17.0947C17.0947 4.91797 17.1875 4.66406 17.373 4.41992C17.5618 4.17253 17.8158 3.97721 18.1348 3.83398C18.457 3.69076 18.8102 3.61914 19.1943 3.61914C19.8031 3.61914 20.2799 3.77214 20.625 4.07812C20.9701 4.38086 21.1491 4.79915 21.1621 5.33301V7.76465C21.1621 8.24967 21.224 8.63542 21.3477 8.92188V9H20.4004ZM18.9014 8.31152C19.1846 8.31152 19.4531 8.23828 19.707 8.0918C19.9609 7.94531 20.1449 7.75488 20.2588 7.52051V6.43652H19.5508C18.444 6.43652 17.8906 6.76042 17.8906 7.4082C17.8906 7.69141 17.985 7.91276 18.1738 8.07227C18.3626 8.23177 18.6051 8.31152 18.9014 8.31152ZM23.4326 3.7168L23.4619 4.38086C23.8656 3.87305 24.3929 3.61914 25.0439 3.61914C26.1605 3.61914 26.7236 4.24902 26.7334 5.50879V9H25.8301V5.50391C25.8268 5.12305 25.7389 4.84147 25.5664 4.65918C25.3971 4.47689 25.1318 4.38574 24.7705 4.38574C24.4775 4.38574 24.2204 4.46387 23.999 4.62012C23.7777 4.77637 23.6051 4.98145 23.4814 5.23535V9H22.5781V3.7168H23.4326ZM26.4209 1.65625C26.4209 2.00781 26.32 2.29264 26.1182 2.51074C25.9196 2.72884 25.6706 2.83789 25.3711 2.83789C25.2376 2.83789 25.1221 2.82161 25.0244 2.78906C24.9268 2.75651 24.7982 2.68978 24.6387 2.58887C24.4824 2.48796 24.3685 2.42773 24.2969 2.4082C24.2285 2.38542 24.1488 2.37402 24.0576 2.37402C23.9242 2.37402 23.8102 2.42611 23.7158 2.53027C23.6214 2.63118 23.5742 2.76139 23.5742 2.9209L22.9688 2.88672C22.9688 2.53841 23.0664 2.25033 23.2617 2.02246C23.4603 1.7946 23.7109 1.68066 24.0137 1.68066C24.1276 1.68066 24.2301 1.69694 24.3213 1.72949C24.4124 1.76204 24.5361 1.82552 24.6924 1.91992C24.8486 2.01432 24.9674 2.07617 25.0488 2.10547C25.1335 2.13477 25.2262 2.14941 25.3271 2.14941C25.4671 2.14941 25.5827 2.09408 25.6738 1.9834C25.7682 1.87272 25.8154 1.74414 25.8154 1.59766L26.4209 1.65625ZM27.8564 6.30957C27.8564 5.79199 27.9574 5.3265 28.1592 4.91309C28.3643 4.49967 28.6475 4.18066 29.0088 3.95605C29.3734 3.73145 29.7884 3.61914 30.2539 3.61914C30.9733 3.61914 31.5544 3.86816 31.9971 4.36621C32.443 4.86426 32.666 5.52669 32.666 6.35352V6.41699C32.666 6.93132 32.5667 7.39355 32.3682 7.80371C32.1729 8.21061 31.8913 8.52799 31.5234 8.75586C31.1589 8.98372 30.7389 9.09766 30.2637 9.09766C29.5475 9.09766 28.9665 8.84863 28.5205 8.35059C28.0778 7.85254 27.8564 7.19336 27.8564 6.37305V6.30957ZM28.7646 6.41699C28.7646 7.00293 28.8997 7.47331 29.1699 7.82812C29.4434 8.18294 29.8079 8.36035 30.2637 8.36035C30.7227 8.36035 31.0872 8.18132 31.3574 7.82324C31.6276 7.46191 31.7627 6.95736 31.7627 6.30957C31.7627 5.73014 31.6243 5.26139 31.3477 4.90332C31.0742 4.54199 30.7096 4.36133 30.2539 4.36133C29.8079 4.36133 29.4482 4.53874 29.1748 4.89355C28.9014 5.24837 28.7646 5.75618 28.7646 6.41699ZM34.7803 9H33.877V1.5H34.7803V9Z" fill="#F3F3F3"/>
<path d="M38.5 5L41.25 7.75L44 5" stroke="#F3F3F3"/>
</svg>
